<?xml version="1.0" encoding="UTF-8" standalone="no"?>
<!-- Created with Inkscape (http://www.inkscape.org/) -->

<svg
   width="210mm"
   height="297mm"
   viewBox="0 0 210 297"
   version="1.1"
   id="svg1"
   xml:space="preserve"
   inkscape:version="1.3.2 (091e20e, 2023-11-25, custom)"
   sodipodi:docname="logo.svg"
   xmlns:inkscape="http://www.inkscape.org/namespaces/inkscape"
   xmlns:sodipodi="http://sodipodi.sourceforge.net/DTD/sodipodi-0.dtd"
   xmlns="http://www.w3.org/2000/svg"
   xmlns:svg="http://www.w3.org/2000/svg"><sodipodi:namedview
     id="namedview1"
     pagecolor="#505050"
     bordercolor="#eeeeee"
     borderopacity="1"
     inkscape:showpageshadow="0"
     inkscape:pageopacity="0"
     inkscape:pagecheckerboard="0"
     inkscape:deskcolor="#505050"
     inkscape:document-units="mm"
     inkscape:zoom="0.49694855"
     inkscape:cx="205.25264"
     inkscape:cy="137.84123"
     inkscape:window-width="1366"
     inkscape:window-height="705"
     inkscape:window-x="-8"
     inkscape:window-y="-8"
     inkscape:window-maximized="1"
     inkscape:current-layer="layer1" /><defs
     id="defs1"><linearGradient
       id="swatch8"
       inkscape:swatch="solid"><stop
         style="stop-color:#000000;stop-opacity:1;"
         offset="0"
         id="stop8" /></linearGradient></defs><g
     inkscape:label="Camada 1"
     inkscape:groupmode="layer"
     id="layer1"><path
       style="fill:#0d6efd;fill-opacity:1;stroke:#423030;stroke-opacity:1;stroke-width:0;stroke-dasharray:none"
       d="m 97.711931,95.713012 17.376219,0.219914 c 0,0 0.005,-0.0069 0.0159,-0.0058 0.13081,0.01335 0.80574,-0.08972 2.9498,2.255097 2.75093,3.008495 27.04421,47.386175 27.04421,47.386175 l -17.51995,-0.35275 c 0,0 -1.43035,0.0521 -2.1165,-1.29342 -0.88904,-1.74338 -27.749719,-48.209258 -27.749719,-48.209258 z"
       id="path1"
       sodipodi:nodetypes="ccssccsc"
       inkscape:export-filename="logo_azulescuro.png"
       inkscape:export-xdpi="81.49649"
       inkscape:export-ydpi="81.49649" /><path
       style="fill:#00cdff;fill-opacity:1;stroke:#423030;stroke-opacity:1;stroke-width:0;stroke-dasharray:none"
       d="m 104.41419,124.52098 -11.94814,19.9531 c 0,0 -0.818569,0.74161 -2.514634,0.74161 H 73.489719 l 11.640772,-19.63646 c 0,0 0.940668,-1.17583 2.822006,-1.17583 1.881336,0 16.461693,0.11758 16.461693,0.11758 z"
       id="path2"
       sodipodi:nodetypes="ccsccsc" /><path
       style="fill:#00cdff;fill-opacity:1;stroke-width:1.69855"
       d="m 280.26137,547.60763 c 0,-0.56388 9.70867,-17.45714 21.57482,-37.54059 15.08803,-25.53648 22.7817,-36.97422 25.58888,-38.0415 4.46219,-1.69653 53.00854,-1.73792 60.12747,-0.0513 l 4.52866,1.07295 -21.92891,36.51891 c -15.63569,26.03862 -23.02853,36.83591 -25.76058,37.62351 -4.87397,1.40507 -64.13034,1.7913 -64.13034,0.41799 z"
       id="path3"
       transform="scale(0.26458333)" /><path
       style="fill:#00cdff;fill-opacity:1;stroke:#423030;stroke-opacity:1;stroke-width:0;stroke-dasharray:none"
       d="m 477.72124,545.6604 c -1.8402,-1.63486 -17.1243,-27.04947 -33.96466,-56.47692 -16.84037,-29.42744 -40.11207,-69.93795 -51.7149,-90.02335 l -21.09605,-36.5189 32.3667,0.55639 c 24.29818,0.41769 33.30293,1.15764 36.12234,2.9683 5.28812,3.3961 13.8567,16.62244 37.33079,57.62324 24.4883,42.77228 66.1193,117.71243 67.70231,121.87124 1.05297,2.76631 -1.10638,2.97246 -31.13464,2.97246 -28.32262,0 -32.67499,-0.36328 -35.61189,-2.97246 z"
       id="path4"
       transform="scale(0.26458333)" /><path
       style="fill:#00cdff;fill-opacity:1;stroke-width:0;stroke:#423030;stroke-opacity:1;stroke-dasharray:none"
       d="m 283.68038,547.92671 c -1.45096,-0.12341 -2.745,-0.33187 -2.87564,-0.46325 -0.26589,-0.26739 3.37743,-6.79462 13.01658,-23.32007 18.00393,-30.86608 26.95531,-45.0738 31.34091,-49.74462 1.95825,-2.08562 2.20748,-2.23856 4.14702,-2.54489 6.64176,-1.04899 40.97019,-1.25358 52.68742,-0.314 4.67791,0.37511 9.60409,1.35912 9.50352,1.89833 -0.0903,0.48403 -25.5878,42.82202 -31.47552,52.26432 -7.69591,12.34214 -12.56839,19.1248 -14.90158,20.7435 -0.82908,0.57519 -1.93891,0.79605 -5.50281,1.09507 -4.9648,0.41655 -51.78168,0.73928 -55.9399,0.38561 z"
       id="path5"
       transform="scale(0.26458333)" /><path
       style="fill:#0d6efd;fill-opacity:1;stroke:#423030;stroke-opacity:1;stroke-width:0;stroke-dasharray:none"
       d="m 528.70454,549.72848 c -6.77632,-0.14427 -20.26412,-0.42633 -29.97289,-0.6268 -14.51616,-0.29973 -17.81871,-0.4042 -18.58896,-0.58806 -2.31539,-0.55268 -4.43135,-2.12796 -5.63101,-4.19214 -0.36275,-0.62416 -1.58878,-2.78839 -2.72452,-4.8094 -2.59997,-4.62659 -14.60855,-25.58632 -25.99397,-45.36977 -4.80509,-8.3494 -8.73653,-15.20678 -8.73653,-15.23862 0,-0.0318 0.15344,-0.0579 0.34098,-0.0579 0.29927,0 0.88436,0.94763 4.78219,7.7454 19.19858,33.48211 33.24152,56.86662 35.46067,59.04964 2.20333,2.16746 5.64609,2.692 19.36194,2.94997 17.66542,0.33225 42.30325,0.0495 44.99537,-0.5164 l 0.39628,-0.0833 v 1.02016 1.02015 l -0.68448,-0.0203 c -0.37646,-0.0112 -6.22874,-0.13835 -13.00507,-0.28262 z"
       id="path6"
       transform="scale(0.26458333)" /><path
       style="fill:#0d6efd;fill-opacity:1;stroke:#423030;stroke-opacity:1;stroke-width:0;stroke-dasharray:none"
       d="m 544.99329,550.01767 -2.41713,-0.0592 v -1.05208 c 0,-1.04908 -10e-4,-1.05176 -0.52135,-0.93768 -3.54191,0.77725 -46.74132,0.85767 -55.87852,0.10402 -4.48031,-0.36954 -6.87816,-1.04998 -8.21552,-2.33133 -2.34355,-2.24541 -14.1924,-21.85667 -33.86935,-56.05784 -5.85286,-10.17305 -6.30763,-10.90056 -6.8147,-10.90149 -0.28651,-5.2e-4 -1.86458,-2.60574 -7.17715,-11.84871 -9.27081,-16.12958 -26.05953,-45.26247 -26.52028,-46.01971 l -0.37489,-0.61614 h 0.93497 0.93497 l 3.46228,6.01915 c 1.90425,3.31053 11.6118,20.22338 21.57234,37.58411 21.0201,36.63703 22.20539,38.69202 28.53927,49.48021 7.64193,13.01612 16.05678,26.82869 18.26831,29.98653 1.59629,2.27935 2.48245,2.86767 5.20115,3.45303 3.64048,0.78384 11.93442,1.05231 32.5903,1.05493 22.43719,0.003 29.19522,-0.33482 29.19522,-1.45871 0,-1.44709 -37.93893,-69.95108 -65.28025,-117.87255 l -4.65103,-8.15191 0.8704,-0.059 c 0.5433,-0.0368 0.95684,0.0344 1.10038,0.18958 1.06012,1.14574 39.83658,70.52263 64.82787,115.98676 4.04076,7.35094 7.38475,13.42932 7.43109,13.50753 0.0463,0.0782 -0.11274,0.12364 -0.3535,0.10098 -0.24076,-0.0227 -1.52545,-0.0679 -2.85488,-0.10046 z"
       id="path7"
       transform="scale(0.26458333)" /><path
       style="fill:#0d6efd;fill-opacity:1;stroke:#423030;stroke-opacity:1;stroke-width:0;stroke-dasharray:none"
       d="m 402.72149,419.33676 c -0.30679,-0.50723 -7.0392,-12.15942 -14.96092,-25.89374 -7.92172,-13.73433 -15.28384,-26.48642 -16.36028,-28.33799 l -1.95714,-3.36649 6.89213,0.17555 c 3.79067,0.0966 18.51239,0.30715 32.71493,0.468 14.20254,0.16084 26.22172,0.3545 26.7093,0.43036 1.39924,0.21769 4.80967,2.7883 8.05216,6.06932 3.09268,3.12943 4.84815,5.56462 9.93226,13.7781 4.59385,7.42145 21.26683,35.92209 21.74781,37.17552 0.12214,0.31827 -0.0515,0.42362 -0.69827,0.42362 -0.75139,0 -0.97862,-0.20745 -1.78721,-1.63166 -6.74549,-11.88109 -18.26859,-31.15732 -22.60353,-37.81196 -6.76661,-10.38753 -10.02771,-13.97014 -13.55201,-14.88811 -2.45605,-0.63972 -8.92734,-1.23725 -16.87548,-1.5582 -8.45946,-0.34161 -42.08268,-0.9469 -45.3212,-0.81588 l -2.33049,0.0943 7.5421,13.05328 c 5.49506,9.51042 22.90724,39.72221 24.98158,43.34542 0.067,0.11705 -0.25836,0.21283 -0.72305,0.21283 -0.64964,0 -0.97382,-0.21315 -1.40269,-0.92225 z"
       id="path8"
       transform="scale(0.26458333)" /><path
       style="fill:#0d6efd;fill-opacity:1;stroke:#423030;stroke-opacity:1;stroke-width:0;stroke-dasharray:none"
       d="m 277.10343,549.17866 c 0,-0.23496 44.36617,-74.86533 44.74299,-75.26422 1.24041,-1.31308 3.66204,-2.75705 5.7435,-3.42476 2.07036,-0.66414 2.00138,-0.66065 12.90776,-0.65264 9.61964,0.007 54.7724,0.31237 54.84353,0.37083 0.0183,0.015 -10.18679,17.10403 -22.67796,37.97552 -15.31171,25.58432 -22.8596,38.08256 -23.16661,38.36063 -0.6243,0.56544 -2.78921,1.61106 -4.12695,1.99326 -2.60659,0.74472 -0.8429,0.70996 -36.01319,0.70996 -17.73919,0 -32.25307,-0.0309 -32.25307,-0.0686 z m 44.70026,-0.82117 c 7.96978,-0.15825 13.43729,-0.34169 17.35279,-0.5822 3.67952,-0.22602 4.83686,-0.37068 5.58096,-0.69759 2.4811,-1.09004 8.63082,-9.83257 19.98772,-28.41485 4.22971,-6.9207 27.24881,-45.26789 27.30984,-45.49507 0.0329,-0.1224 0.0235,-0.22254 -0.0208,-0.22254 -0.0443,0 -1.15922,-0.25593 -2.47761,-0.56873 -1.3184,-0.3128 -3.07716,-0.65427 -3.90836,-0.75883 -6.11527,-0.76922 -24.49938,-1.1554 -39.78945,-0.83582 -11.42506,0.2388 -17.45921,0.66536 -18.73342,1.32428 -2.484,1.28452 -8.76397,10.34975 -19.47821,28.11706 -9.85908,16.34919 -27.47168,46.7444 -27.47168,47.40965 0,0.30402 3.08563,0.56811 8.32964,0.71292 5.29172,0.14613 26.17927,0.15347 33.31854,0.0117 z"
       id="path9"
       transform="scale(0.26458333)" /><path
       style="fill:#0d6efd;fill-opacity:1;stroke:#423030;stroke-opacity:1;stroke-width:0;stroke-dasharray:none"
       d="m 547.78521,550.20525 c -0.37296,-0.0306 -2.28701,-0.089 -4.60092,-0.14033 -0.36399,-0.008 -0.67098,-0.0165 -0.6822,-0.0187 l -0.0204,-0.004 -10e-6,-0.84975 c 0,-0.50799 -0.004,-0.88986 -0.009,-0.94948 -0.0109,-0.11712 -0.0294,-0.18823 -0.0557,-0.21461 -0.0171,-0.0171 -0.0263,-0.0185 -0.0926,-0.0141 -0.0405,0.003 -0.14494,0.0197 -0.23215,0.0377 -0.33862,0.07 -0.78123,0.1197 -1.57755,0.17722 -0.64546,0.0466 -1.70232,0.10196 -2.59283,0.13576 -0.13712,0.005 -0.27888,0.0115 -0.31503,0.0139 l -0.0657,0.004 v -0.0899 -0.0899 l 0.0476,-0.005 c 0.0262,-0.003 0.22098,-0.0113 0.4329,-0.0193 0.70363,-0.0264 1.64313,-0.0742 2.23473,-0.11358 0.92719,-0.0617 1.48051,-0.12115 1.82443,-0.19589 0.12175,-0.0265 0.17262,-0.0332 0.25618,-0.034 0.0996,-9.1e-4 0.10647,2.6e-4 0.15402,0.0263 0.0655,0.0358 0.11159,0.10241 0.13521,0.19548 0.032,0.12614 0.0371,0.27213 0.0371,1.0561 v 0.7565 h 0.0204 c 0.0449,10e-6 2.59879,0.0637 2.90333,0.0724 0.5909,0.0169 1.19107,0.0363 1.55479,0.0503 0.32576,0.0125 0.47316,0.0198 0.75294,0.0371 0.10172,0.006 0.19898,-10e-4 0.19898,-0.0156 0,-0.005 -0.13002,-0.24412 -0.28892,-0.53196 -0.30909,-0.5599 -1.36948,-2.48621 -2.2757,-4.13408 -0.30514,-0.55486 -0.55716,-1.01498 -0.56004,-1.02248 -0.005,-0.0117 0.009,-0.0133 0.0961,-0.0111 l 0.10132,0.003 1.04726,1.90383 c 0.57599,1.0471 1.2769,2.32023 1.55757,2.82917 0.28067,0.50894 0.51513,0.93995 0.52102,0.9578 0.0303,0.0916 -0.0522,0.17338 -0.1986,0.19692 -0.0659,0.0106 -0.17916,0.0106 -0.30824,10e-6 z"
       id="path10"
       transform="scale(0.26458333)" /><path
       style="fill:#0d6efd;fill-opacity:1;stroke:#423030;stroke-opacity:1;stroke-width:0;stroke-dasharray:none"
       d="m 277.80823,548.71345 c 0,-0.28534 2.38326,-4.34849 16.77531,-28.59964 21.0961,-35.54774 26.899,-45.12078 28.16077,-46.45679 0.73386,-0.77703 2.35642,-1.8754 3.60569,-2.4408 2.19751,-0.99457 2.71888,-1.03171 16.02867,-1.14153 7.5665,-0.0624 22.46589,0.0374 33.10976,0.22189 l 19.35248,0.33541 -22.74293,37.94227 -22.74292,37.94227 -2.37874,1.11064 -2.37873,1.11065 -33.39468,0.12179 c -18.36708,0.067 -33.39468,10e-4 -33.39468,-0.14616 z"
       id="path11"
       transform="scale(0.26458333)" /><path
       style="fill:#0d6efd;fill-opacity:1;stroke:#423030;stroke-opacity:1;stroke-width:0;stroke-dasharray:none"
       d="m 505.86358,549.17104 c -16.18585,-0.35145 -25.66934,-0.72584 -26.65897,-1.05245 -0.84484,-0.27882 -2.1574,-1.15222 -2.9168,-1.94089 -0.75939,-0.78866 -7.95217,-12.91682 -15.98395,-26.95146 -14.18025,-24.77841 -39.15071,-68.12645 -73.17362,-127.02739 -9.12723,-15.80119 -16.71982,-29.05482 -16.87243,-29.45251 -0.25556,-0.66598 2.29496,-0.69794 32.29703,-0.40462 30.06622,0.29393 32.71751,0.38045 34.43168,1.1236 2.82768,1.22588 9.1388,7.56932 12.35035,12.41359 10.20921,15.39947 41.07366,69.53381 82.74092,145.12246 7.87096,14.27872 14.68289,26.61035 15.13762,27.40361 l 0.8268,1.44229 -8.52786,-0.0654 c -4.69032,-0.036 -19.83317,-0.31084 -33.65077,-0.61087 z"
       id="path12"
       transform="scale(0.26458333)" /><path
       style="fill:#0d6efd;fill-opacity:1;stroke:#423030;stroke-opacity:1;stroke-width:0;stroke-dasharray:none"
       d="m 408.65509,429.67215 c -3.56788,-6.18868 -4.93729,-8.55368 -5.24556,-9.05919 l -0.18826,-0.30872 h 0.0694 c 0.0382,0 0.0694,-0.005 0.0694,-0.0121 0,-0.0349 -0.24732,-0.42466 -0.38258,-0.6029 -0.1692,-0.22298 -0.22758,-0.32094 -1.50267,-2.52147 l -0.86294,-1.48923 4.76829,-0.005 c 2.62255,-0.003 4.77134,-0.002 4.77509,0.002 0.004,0.004 0.005,3.73879 0.002,8.30009 l -0.005,8.29328 z"
       id="path13"
       transform="scale(0.26458333)" /><path
       style="fill:#0d6efd;fill-opacity:1;stroke:#423030;stroke-opacity:1;stroke-width:0;stroke-dasharray:none"
       d="m 409.38967,431.13024 c -2.31245,-4.00902 -8.85344,-15.33997 -8.88765,-15.39606 l -0.0401,-0.0658 h 0.0594 c 0.0573,0 0.0839,0.0422 0.72397,1.14885 1.28904,2.22854 1.55674,2.68009 1.69253,2.85493 0.12249,0.15773 0.34353,0.50096 0.37437,0.58134 0.009,0.0233 -0.004,0.0305 -0.0534,0.0305 -0.0446,0 -0.0619,0.008 -0.0551,0.0259 0.005,0.0143 0.0961,0.16684 0.20132,0.33908 0.28396,0.46469 1.3503,2.30617 4.93349,8.51972 1.45105,2.51623 1.82439,3.17784 1.81951,3.22441 -0.005,0.0477 -0.14801,-0.18736 -0.76839,-1.26289 z"
       id="path14"
       transform="scale(0.26458333)" /><path
       style="fill:#0d6efd;fill-opacity:1;stroke:#423030;stroke-opacity:1;stroke-width:0;stroke-dasharray:none"
       d="m 485.50981,548.90931 c -1.42881,-0.0294 -2.86859,-0.059 -3.1995,-0.0658 -0.5759,-0.0118 -0.78517,-0.0238 -1.1079,-0.0635 -0.93866,-0.11541 -1.88905,-0.37684 -2.73826,-0.75322 -1.03524,-0.45883 -1.91555,-1.06626 -2.68933,-1.85567 -0.32833,-0.33497 -0.59719,-0.65628 -0.87466,-1.0453 -0.13713,-0.19227 -0.40587,-0.60769 -0.40587,-0.6274 0,-0.005 0.0244,-0.009 0.0542,-0.009 h 0.0542 l 0.13063,0.19962 c 0.62799,0.95965 1.43197,1.78483 2.39765,2.4609 0.89359,0.62559 1.90048,1.08951 2.92447,1.34743 0.59322,0.14942 2.07786,0.2214 7.44987,0.36121 0.3553,0.009 0.67792,0.0168 0.71694,0.0168 h 0.0709 v 0.045 0.045 l -0.0928,-10e-4 c -0.051,-8.1e-4 -1.26181,-0.0255 -2.69063,-0.055 z"
       id="path15"
       transform="scale(0.26458333)" /><path
       style="fill:#0d6efd;fill-opacity:1;stroke:#423030;stroke-opacity:1;stroke-width:0;stroke-dasharray:none"
       d="m 495.10667,548.84879 c -14.44395,-0.34368 -15.98222,-0.49592 -17.65677,-1.74747 -1.02904,-0.7691 -5.78814,-8.26104 -10.84024,-17.0651 -11.57386,-20.16924 -32.94183,-57.29088 -45.77191,-79.51758 -5.5262,-9.57352 -15.35644,-26.62156 -21.84498,-37.88452 -6.48854,-11.26297 -15.67276,-27.204 -20.40937,-35.42451 -4.73662,-8.2205 -8.61203,-15.02253 -8.61203,-15.11561 0,-0.0931 7.6025,-0.0478 16.89444,0.10058 9.29195,0.1484 24.12464,0.37735 32.96154,0.50879 11.37518,0.16919 16.54552,0.49503 17.70541,1.11579 2.99866,1.60483 8.34798,7.11831 11.59841,11.95434 9.53647,14.18847 39.73692,67.05648 80.71602,141.29903 8.08175,14.64185 15.35444,27.92703 16.16153,29.52262 l 1.46743,2.90107 -18.27353,-0.13547 c -10.05044,-0.0745 -25.39361,-0.3049 -34.09595,-0.51196 z"
       id="path16"
       transform="scale(0.26458333)" /><path
       style="fill:#0d6efd;fill-opacity:1;stroke:#423030;stroke-opacity:1;stroke-width:0;stroke-dasharray:none"
       d="m 278.01553,548.32016 c 1.09992,-1.95046 37.88924,-63.84334 40.86475,-68.74924 2.97802,-4.91002 4.2835,-6.40992 6.68391,-7.67929 l 2.98306,-1.57748 h 32.99893 c 18.14941,0 32.97759,0.23038 32.95152,0.51196 -0.0261,0.28157 -10.0928,17.22477 -22.37049,37.65155 -13.45678,22.38847 -23.08224,37.70659 -24.23447,38.56713 -1.8712,1.3975 -2.6292,1.4315 -36.04388,1.61668 -18.77286,0.10403 -33.99786,-0.0495 -33.83333,-0.34131 z"
       id="path17"
       transform="scale(0.26458333)" /><path
       style="fill:#0d6efd;fill-opacity:1;stroke:#423030;stroke-width:0;stroke-dasharray:none;stroke-opacity:1"
       d="m 451.67198,379.6336 c -2.27143,-3.58447 -3.3995,-5.21811 -4.87186,-7.05531 -2.24691,-2.80367 -5.02533,-5.65125 -7.21233,-7.39183 -0.7331,-0.58346 -1.69708,-1.23415 -2.10172,-1.41867 -1.16605,-0.53171 -5.23772,-0.83439 -13.67485,-1.01653 -3.39914,-0.0734 -37.56105,-0.59945 -38.93648,-0.59959 -0.96437,-1e-4 -1.05086,-0.008 -1.0509,-0.0956 -3e-5,-0.0882 0.0807,-0.0944 1.05087,-0.0807 0.57799,0.008 10.87713,0.13769 22.88698,0.2878 12.00985,0.1501 23.19948,0.29237 24.86585,0.31614 l 3.02976,0.0432 0.51339,0.17572 c 1.59973,0.54755 3.55313,1.95276 6.3214,4.54743 0.94341,0.88425 3.1011,3.105 3.83758,3.94973 0.92392,1.05974 2.41997,3.21564 4.67751,6.7406 0.8326,1.30003 0.89071,1.40775 0.89071,1.65135 0,0.14333 -0.006,0.26039 -0.0137,0.26012 -0.007,-2.6e-4 -0.10302,-0.14151 -0.21226,-0.31389 z"
       id="path18"
       transform="scale(0.26458333)"
       inkscape:export-filename="logo_azulescuro.png"
       inkscape:export-xdpi="81.49649"
       inkscape:export-ydpi="81.49649" /></g></svg>
